<?xml version="1.0" encoding="utf-8"?>

<!-- Uploaded to: SVG Repo, www.svgrepo.com, Generator: SVG Repo Mixer Tools -->
<svg version="1.1" id="Icons" xmlns="http://www.w3.org/2000/svg" xmlns:xlink="http://www.w3.org/1999/xlink" 
	 viewBox="0 0 32 32" xml:space="preserve">
<style type="text/css">
	.st0{fill:none;stroke:#000000;stroke-width:2;stroke-linecap:round;stroke-linejoin:round;stroke-miterlimit:10;}
</style>
<path d="M26,28c-5.5,0-11-2.9-14.4-7c1.2,0.6,2.6,1,4.1,1c2.5,2.4,5.8,3.8,9.3,3.8c0.6,0,1-0.4,1-1V12c0-3.7-2-6.9-5-8.6
	c0,0,0,0,0,0c0,0,0,0,0,0C19.5,2.5,17.8,2,16,2s-3.5,0.5-5,1.3c0,0,0,0,0,0c0,0,0,0,0,0C8,5.1,6,8.3,6,12c0,9.3,9.7,18,20,18
	c0.6,0,1-0.4,1-1S26.6,28,26,28z M24,18v5.7c-2-0.2-3.9-0.9-5.6-2C20.7,21.1,22.6,19.8,24,18z M20,10c1.1,0,2,0.9,2,2s-0.9,2-2,2
	s-2-0.9-2-2S18.9,10,20,10z M13.5,4.4c0.4-0.1,0.8-0.2,1.2-0.3c0,0,0.1,0,0.1,0c0.8-0.1,1.6-0.1,2.4,0c0,0,0.1,0,0.1,0
	c0.4,0.1,0.8,0.2,1.2,0.3c0,0,0,0,0,0c-1.1,0.9-1.9,2-2.5,3.3C15.4,6.4,14.5,5.3,13.5,4.4C13.5,4.4,13.5,4.4,13.5,4.4z M10,12
	c0-1.1,0.9-2,2-2s2,0.9,2,2s-0.9,2-2,2S10,13.1,10,12z"/>
</svg>