<?xml version="1.0" standalone="no"?>
<!DOCTYPE svg PUBLIC "-//W3C//DTD SVG 20010904//EN"
 "http://www.w3.org/TR/2001/REC-SVG-20010904/DTD/svg10.dtd">
<svg version="1.0" xmlns="http://www.w3.org/2000/svg"
 width="64.000000pt" height="64.000000pt" viewBox="0 0 64.000000 64.000000"
 preserveAspectRatio="xMidYMid meet">

<g transform="translate(0.000000,64.000000) scale(0.100000,-0.100000)"
fill="#000000" stroke="none">
<path d="M63 620 c-59 -36 -63 -55 -63 -300 0 -245 4 -264 63 -300 29 -18 51
-20 257 -20 330 0 320 -9 320 322 0 327 9 318 -322 318 -204 0 -226 -2 -255
-20z m336 -159 c11 -32 21 -61 21 -65 0 -3 -22 -6 -49 -6 -56 0 -43 20 -114
-175 l-33 -90 -52 -3 c-29 -2 -52 -1 -52 2 0 2 32 91 70 197 39 105 70 193 70
195 0 2 26 4 59 4 l58 0 22 -59z m73 -206 c21 -55 41 -108 44 -117 5 -16 -2
-18 -44 -18 l-49 0 -13 45 c-7 25 -16 45 -20 45 -4 0 -13 -20 -20 -45 l-13
-45 -48 0 c-27 0 -49 2 -49 4 0 5 81 220 87 229 3 4 23 7 46 5 l41 -3 38 -100z"/>
</g>
</svg>
