<?xml version="1.0" standalone="no"?>
<!DOCTYPE svg PUBLIC "-//W3C//DTD SVG 20010904//EN"
 "http://www.w3.org/TR/2001/REC-SVG-20010904/DTD/svg10.dtd">
<svg version="1.0" xmlns="http://www.w3.org/2000/svg"
 width="460.000000pt" height="460.000000pt" viewBox="0 0 460.000000 460.000000"
 preserveAspectRatio="xMidYMid meet">

<g transform="translate(0.000000,460.000000) scale(0.100000,-0.100000)"
fill="#000000" stroke="none">
<path d="M2095 4174 c-236 -25 -560 -135 -763 -259 -48 -29 -161 -107 -187
-129 l-30 -25 1185 0 1185 0 -30 25 c-16 14 -61 46 -100 72 -173 116 -356 200
-547 253 -183 51 -257 61 -468 64 -113 2 -223 1 -245 -1z"/>
<path d="M714 3313 c-30 -44 -36 -56 -88 -155 -41 -79 -96 -207 -96 -223 0 -3
796 -5 1770 -5 974 0 1770 2 1770 5 0 17 -55 145 -96 223 -52 100 -59 112 -88
155 l-18 27 -1568 0 -1568 0 -18 -27z"/>
<path d="M426 2479 c-3 -17 -6 -98 -6 -179 0 -81 3 -162 6 -179 l7 -31 1867 0
1868 0 6 31 c8 41 8 317 0 358 l-6 31 -1868 0 -1867 0 -7 -31z"/>
<path d="M530 1665 c0 -17 55 -145 96 -223 52 -100 59 -112 88 -154 l18 -28
1568 0 1568 0 18 28 c30 43 36 55 88 154 41 79 96 207 96 223 0 3 -796 5
-1770 5 -974 0 -1770 -2 -1770 -5z"/>
<path d="M1145 814 c17 -14 62 -46 100 -72 221 -148 436 -235 735 -299 123
-26 517 -26 640 0 300 64 513 150 735 299 39 26 84 58 100 72 l30 25 -1185 0
-1185 0 30 -25z"/>
</g>
</svg>
